<?xml version="1.0" standalone="no"?>
<svg xmlns:xlink="http://www.w3.org/1999/xlink" id="wave" style="transform:rotate(0deg); transition: 0.3s" viewBox="0 0 1440 200" version="1.1" xmlns="http://www.w3.org/2000/svg"><defs><linearGradient id="sw-gradient-0" x1="0" x2="0" y1="1" y2="0"><stop stop-color="rgba(2.975, 113.299, 19.483, 1)" offset="0%"/><stop stop-color="rgba(67.75, 145.174, 89.828, 1)" offset="100%"/></linearGradient></defs><path style="transform:translate(0, 0px); opacity:1" fill="url(#sw-gradient-0)" d="M0,180L80,163.3C160,147,320,113,480,103.3C640,93,800,107,960,93.3C1120,80,1280,40,1440,40C1600,40,1760,80,1920,86.7C2080,93,2240,67,2400,60C2560,53,2720,67,2880,60C3040,53,3200,27,3360,20C3520,13,3680,27,3840,36.7C4000,47,4160,53,4320,73.3C4480,93,4640,127,4800,126.7C4960,127,5120,93,5280,66.7C5440,40,5600,20,5760,26.7C5920,33,6080,67,6240,86.7C6400,107,6560,113,6720,96.7C6880,80,7040,40,7200,30C7360,20,7520,40,7680,43.3C7840,47,8000,33,8160,23.3C8320,13,8480,7,8640,20C8800,33,8960,67,9120,83.3C9280,100,9440,100,9600,90C9760,80,9920,60,10080,73.3C10240,87,10400,133,10560,136.7C10720,140,10880,100,11040,70C11200,40,11360,20,11440,10L11520,0L11520,200L11440,200C11360,200,11200,200,11040,200C10880,200,10720,200,10560,200C10400,200,10240,200,10080,200C9920,200,9760,200,9600,200C9440,200,9280,200,9120,200C8960,200,8800,200,8640,200C8480,200,8320,200,8160,200C8000,200,7840,200,7680,200C7520,200,7360,200,7200,200C7040,200,6880,200,6720,200C6560,200,6400,200,6240,200C6080,200,5920,200,5760,200C5600,200,5440,200,5280,200C5120,200,4960,200,4800,200C4640,200,4480,200,4320,200C4160,200,4000,200,3840,200C3680,200,3520,200,3360,200C3200,200,3040,200,2880,200C2720,200,2560,200,2400,200C2240,200,2080,200,1920,200C1760,200,1600,200,1440,200C1280,200,1120,200,960,200C800,200,640,200,480,200C320,200,160,200,80,200L0,200Z"/></svg>