<?xml version="1.0" standalone="no"?>
<!DOCTYPE svg PUBLIC "-//W3C//DTD SVG 20010904//EN"
 "http://www.w3.org/TR/2001/REC-SVG-20010904/DTD/svg10.dtd">
<svg version="1.0" xmlns="http://www.w3.org/2000/svg"
 width="68" height="68" viewBox="0 0 512.000000 512.000000"
 preserveAspectRatio="xMidYMid meet">

<g transform="translate(0.000000,512.000000) scale(0.100000,-0.100000)"
fill="#355E3B" stroke="none">
<path d="M3087 4698 c-27 -47 -76 -90 -116 -103 -22 -7 -22 -8 15 -24 43 -19
100 -78 115 -119 l10 -25 21 42 c22 45 79 98 116 108 21 5 19 8 -25 33 -44 25
-94 82 -105 119 -2 9 -15 -3 -31 -31z"/>
<path d="M2524 4399 c-17 -5 -38 -17 -47 -27 -9 -10 -66 -118 -127 -240 -60
-122 -115 -225 -122 -227 -7 -3 -120 -20 -252 -40 -253 -37 -291 -49 -314
-100 -17 -38 -15 -96 6 -126 9 -14 59 -66 111 -115 l94 -90 -479 -196 c-263
-109 -488 -200 -498 -204 -19 -7 -737 -558 -829 -635 -50 -43 -58 -66 -29 -91
9 -8 196 -82 414 -164 l398 -149 0 -661 c0 -616 1 -663 18 -682 21 -26 1653
-646 1697 -645 26 0 1644 606 1685 631 13 8 16 98 20 681 l5 673 402 151 c221
84 407 157 413 163 6 6 10 23 8 37 -2 21 -86 90 -429 355 l-426 329 -484 197
c-266 109 -488 201 -492 206 -5 4 33 45 83 91 50 46 100 98 111 115 21 35 25
90 7 129 -23 51 -61 63 -319 101 -134 20 -248 40 -254 45 -5 6 -59 110 -120
232 -132 267 -150 285 -251 256z m176 -324 c76 -151 124 -236 141 -248 19 -14
89 -28 260 -53 291 -43 279 -40 279 -64 0 -12 -71 -89 -185 -201 -145 -142
-186 -189 -191 -214 -3 -20 10 -125 35 -268 46 -264 46 -266 28 -273 -8 -3
-114 48 -237 112 -180 95 -231 117 -264 117 -33 0 -86 -24 -262 -117 -122 -64
-226 -116 -232 -116 -6 0 -14 5 -17 10 -4 6 13 124 36 263 38 221 42 257 30
284 -7 17 -93 111 -192 209 -98 98 -179 186 -179 196 0 10 1 18 3 19 1 0 116
17 256 38 188 29 260 44 280 58 17 12 67 99 144 252 91 179 122 232 135 229
11 -2 58 -84 132 -233z m-1022 -1444 c409 -154 750 -285 758 -289 19 -10 -688
-557 -720 -557 -29 1 -1527 567 -1524 576 7 18 715 558 728 555 8 -2 349 -130
758 -285z m2902 5 c199 -153 360 -280 358 -282 -4 -4 -1454 -550 -1505 -567
-25 -8 -37 -7 -52 4 -71 49 -707 545 -702 547 30 14 1528 579 1533 578 4 0
170 -126 368 -280z"/>
</g>
</svg>
