<svg version="1.1" id="Layer_1" xmlns="http://www.w3.org/2000/svg" xmlns:xlink="http://www.w3.org/1999/xlink" x="0px" y="0px"
	 width="100%" viewBox="0 0 333 125" enable-background="new 0 0 333 125" xml:space="preserve">
<path fill="#FEFEFE" opacity="1.000000" stroke="none" 
	d="
M213.000000,126.000000 
	C142.000015,126.000000 71.500031,126.000000 1.000038,126.000000 
	C1.000025,84.333359 1.000025,42.666721 1.000013,1.000060 
	C111.999947,1.000040 222.999893,1.000040 333.999878,1.000020 
	C333.999939,42.666603 333.999939,84.333206 333.999969,125.999908 
	C293.833344,126.000000 253.666672,126.000000 213.000000,126.000000 
M63.793652,104.843552 
	C63.815937,105.561752 63.838223,106.279953 63.335583,107.542877 
	C62.251934,111.453659 63.742573,113.094757 67.784546,113.043488 
	C76.586739,112.931824 85.395485,112.873634 94.191780,113.129463 
	C96.063507,113.183899 98.577766,114.168015 99.619370,115.587318 
	C103.294930,120.595695 108.094963,121.272987 113.704597,120.650528 
	C117.719948,120.204971 121.798706,120.127274 125.843636,120.198845 
	C132.121811,120.309937 138.410828,121.053955 144.663757,120.788361 
	C147.516693,120.667183 151.802795,121.213158 152.964111,116.101379 
	C153.978470,113.879257 155.837082,111.670311 155.872009,109.432899 
	C156.123734,93.308708 156.048264,77.178436 155.929123,61.051182 
	C155.919022,59.684967 154.833847,58.326694 154.067261,56.472862 
	C153.987183,56.317619 153.907089,56.162373 153.933685,55.318390 
	C152.995178,53.794041 152.056671,52.269691 150.810852,50.118744 
	C148.875488,49.374783 146.940109,48.630821 144.215714,47.585850 
	C142.825439,47.664822 141.435181,47.743793 139.266251,47.557438 
	C138.186401,47.654385 137.106567,47.751331 135.117752,47.582062 
	C114.293068,47.551102 93.467781,47.441822 72.644600,47.604092 
	C70.437042,47.621296 68.241905,49.230999 65.400146,50.277004 
	C65.126564,51.840122 64.852982,53.403240 63.795876,54.985867 
	C63.210304,55.834766 62.130215,56.675587 62.116196,57.533817 
	C61.986130,65.497742 61.986488,73.465515 62.112988,81.429565 
	C62.127419,82.337921 63.147545,83.230301 63.787197,84.934013 
	C64.063652,86.993317 64.340111,89.052628 64.694633,91.871613 
	C64.644699,92.885483 64.594765,93.899361 63.785873,94.943733 
	C60.828659,97.977104 61.081966,101.042610 63.793652,104.843552 
M230.000961,76.239082 
	C228.973007,74.936050 227.865814,72.476334 226.931503,72.540337 
	C223.745010,72.758636 223.547104,75.363014 223.336243,78.061722 
	C222.547791,79.416656 221.759323,80.771584 220.274124,82.047997 
	C218.584824,83.263931 216.895538,84.479866 215.133011,85.748512 
	C214.640076,84.404739 214.168121,83.118164 213.756424,81.995857 
	C210.546982,81.790253 208.896042,82.720528 208.937775,86.113495 
	C207.730637,86.729042 206.523483,87.344582 205.162140,87.177452 
	C203.901138,81.066544 202.561005,80.700020 193.963959,84.288551 
	C193.963959,79.921364 193.963959,75.655228 193.963959,71.101646 
	C190.867401,71.784164 187.100525,70.984901 187.272720,75.988823 
	C186.906693,75.982162 186.540680,75.975502 185.727005,75.195610 
	C179.582825,75.195610 173.438629,75.195610 167.083755,75.195610 
	C167.083755,76.704636 167.083755,77.839478 166.487244,79.406830 
	C166.919006,80.988548 167.109879,83.816139 167.820877,83.953606 
	C173.192947,84.992226 171.800751,88.994049 172.058533,92.392273 
	C172.201767,94.280396 172.712387,96.140648 172.942886,98.803406 
	C172.974960,99.865479 173.007034,100.927544 172.472397,102.437202 
	C171.359512,105.844849 173.005554,107.763618 176.169128,107.804695 
	C179.046585,107.842064 181.127487,106.301903 181.034790,102.827621 
	C180.906570,98.021713 180.802261,93.196335 181.133804,88.410194 
	C181.217010,87.208969 183.001877,86.125618 184.004700,84.988083 
	C185.005600,86.124245 186.595535,87.126564 186.890198,88.423225 
	C187.599854,91.546097 187.703140,94.806763 187.935928,98.801453 
	C187.984848,99.862022 188.033752,100.922592 187.494308,102.438950 
	C186.477432,105.058571 187.290100,106.669655 190.140732,106.966698 
	C193.130341,107.278221 195.581375,106.407501 195.903488,103.023262 
	C196.168732,100.236656 195.957626,97.404709 195.957626,94.592857 
	C196.428436,94.580025 196.899231,94.567184 197.370041,94.554352 
	C197.579193,95.091507 197.935852,95.618652 197.973129,96.167480 
	C198.185532,99.294395 197.172989,103.525063 198.814041,105.241058 
	C200.385880,106.884697 204.697433,105.810196 207.785828,106.120209 
	C216.621948,107.007172 216.491745,107.036064 217.097809,98.544785 
	C217.206955,97.015717 218.836273,95.595154 219.763733,94.124489 
	C220.503128,95.647919 221.356827,97.128120 221.953583,98.705513 
	C222.734741,100.770332 223.312912,102.911926 224.463531,105.538452 
	C225.991058,105.370102 227.518585,105.201752 229.847397,105.034592 
	C230.811417,105.181023 231.867050,105.122604 232.724960,105.506287 
	C239.589920,108.576508 241.944794,107.035645 241.998032,99.437958 
	C242.015076,97.006302 242.246353,94.576149 242.379608,92.145309 
	C243.017258,92.117088 243.654907,92.088860 244.292557,92.060631 
	C244.534851,93.490311 244.802582,94.916237 245.013763,96.350494 
	C245.371078,98.777374 245.274414,101.368111 246.122360,103.604134 
	C247.576401,107.438515 250.527588,108.613655 254.496872,107.028061 
	C258.504700,105.427086 258.658356,102.825066 256.423950,98.900169 
	C256.304871,98.425140 256.328644,97.657272 256.045258,97.519020 
	C251.802521,95.449097 250.870544,89.646156 254.326721,86.492363 
	C257.776917,83.344017 257.776917,83.344002 252.898392,81.792030 
	C252.816467,80.367180 252.732956,78.915039 252.645615,77.395981 
	C250.691132,77.691757 248.934158,77.957642 247.919449,78.111198 
	C246.690704,80.418701 245.753754,82.178253 244.419006,83.914581 
	C244.419006,83.914581 244.027725,83.990074 243.681458,83.306046 
	C241.186569,82.735191 239.574295,82.134346 242.029510,79.214737 
	C243.746445,77.173004 244.647003,74.444756 246.151642,71.564804 
	C239.436905,70.833450 238.081467,71.212715 235.704865,75.492943 
	C234.066818,78.443024 233.184158,81.812538 231.331696,84.995956 
	C230.700638,84.987961 230.069565,84.979965 229.304886,84.224106 
	C229.300430,83.467361 229.295990,82.710625 229.882980,81.645782 
	C229.923416,80.097351 229.963837,78.548927 230.000961,76.239082 
M289.249603,85.139427 
	C288.103149,83.879593 286.956665,82.619751 285.135132,80.618111 
	C285.119293,80.423264 285.002533,78.988281 284.873688,77.404388 
	C283.147247,77.708038 281.725952,77.958015 280.383850,78.194069 
	C279.360992,81.222694 278.397797,84.074638 276.803162,87.222633 
	C277.469147,88.833015 278.135101,90.443398 278.908722,92.915138 
	C278.960968,94.938622 279.013214,96.962097 278.516052,99.460327 
	C277.069916,103.074997 279.058472,105.534653 281.914246,106.678024 
	C283.664642,107.378830 286.786774,107.067490 288.041534,105.883965 
	C289.196106,104.794937 288.676849,101.931328 288.931427,99.153618 
	C288.278809,98.454735 287.626190,97.755852 286.821289,96.240898 
	C287.551361,94.436478 287.846100,92.199684 289.110809,90.926201 
	C291.146729,88.876183 291.337982,87.527618 289.249603,85.139427 
M65.541138,20.109079 
	C68.607124,25.365597 71.673119,30.622112 74.869644,36.102428 
	C71.423302,38.128159 68.679291,39.741070 65.140724,41.821011 
	C73.956993,42.208054 81.722549,42.581402 89.491676,42.852509 
	C90.566444,42.890015 92.223289,42.791409 92.655899,42.130684 
	C97.037117,35.439289 101.219658,28.617821 105.457939,21.832838 
	C105.180672,21.593145 104.903412,21.353451 104.626152,21.113758 
	C102.241646,22.311832 99.857132,23.509905 97.405060,24.741922 
	C94.988281,21.027382 92.975777,17.354399 90.373688,14.161968 
	C88.916504,12.374195 86.533005,10.314144 84.479721,10.216874 
	C75.454414,9.789322 66.397346,10.032421 56.721436,10.032421 
	C58.294769,11.810222 59.262905,12.904169 60.084618,14.695049 
	C58.856018,14.263398 57.405701,14.114904 56.434536,13.354477 
	C49.770020,8.136113 42.234554,7.883196 38.287220,13.357072 
	C33.275211,20.307356 28.710121,27.579920 23.716589,35.066978 
	C31.286221,39.183632 38.493221,43.103069 45.903244,47.132915 
	C51.539669,38.424408 56.988419,29.950230 62.527706,21.535654 
	C63.066711,20.716871 64.164665,20.266041 65.541138,20.109079 
M24.760073,79.345139 
	C28.443520,73.915199 32.126965,68.485252 35.782322,63.096718 
	C39.296600,64.997795 41.928505,66.421547 44.560410,67.845299 
	C41.732758,60.445457 38.286591,53.697556 34.711933,47.018425 
	C34.327927,46.300930 33.201935,45.556339 32.410900,45.546223 
	C24.092827,45.439827 15.772872,45.480442 6.999926,45.480442 
	C9.714263,47.152603 12.045744,48.588909 14.441144,50.064590 
	C12.000423,53.969112 9.627832,57.389847 7.686904,61.040100 
	C6.818274,62.673714 5.889667,65.241035 6.571723,66.575020 
	C10.639476,74.530823 15.169704,82.250160 19.794659,90.494423 
	C21.597780,86.333359 22.976151,83.152489 24.760073,79.345139 
M50.201649,105.152664 
	C52.975704,105.339012 55.749760,105.525352 58.914356,105.737938 
	C59.292130,97.679825 59.655750,89.923691 60.066063,81.171494 
	C48.603188,81.171494 37.528103,81.171494 25.845455,81.171494 
	C25.255432,82.797913 24.269850,85.243217 23.493643,87.753273 
	C23.006092,89.329895 22.676292,90.991341 22.546427,92.636093 
	C22.065367,98.728676 26.324539,103.726044 32.326065,104.129761 
	C37.969608,104.509384 43.620014,104.787041 50.201649,105.152664 
M268.367249,103.117760 
	C269.911438,102.092735 272.747772,101.123581 272.794891,100.033821 
	C273.164520,91.485741 272.999786,82.914551 272.999786,74.030159 
	C270.621887,74.569145 268.915863,74.955849 267.470123,75.283554 
	C267.470123,84.759186 267.470123,93.837723 268.367249,103.117760 
z"/>
<path fill="#056A33" opacity="1.000000" stroke="none" 
	d="
M24.557297,79.658386 
	C22.976151,83.152489 21.597780,86.333359 19.794659,90.494423 
	C15.169704,82.250160 10.639476,74.530823 6.571723,66.575020 
	C5.889667,65.241035 6.818274,62.673714 7.686904,61.040100 
	C9.627832,57.389847 12.000423,53.969112 14.441144,50.064590 
	C12.045744,48.588909 9.714263,47.152603 6.999926,45.480442 
	C15.772872,45.480442 24.092827,45.439827 32.410900,45.546223 
	C33.201935,45.556339 34.327927,46.300930 34.711933,47.018425 
	C38.286591,53.697556 41.732758,60.445457 44.560410,67.845299 
	C41.928505,66.421547 39.296600,64.997795 35.782322,63.096718 
	C32.126965,68.485252 28.443520,73.915199 24.557297,79.658386 
z"/>
<path fill="#046932" opacity="1.000000" stroke="none" 
	d="
M60.231037,13.998118 
	C59.262905,12.904169 58.294769,11.810222 56.721436,10.032421 
	C66.397346,10.032421 75.454414,9.789322 84.479721,10.216874 
	C86.533005,10.314144 88.916504,12.374195 90.373688,14.161968 
	C92.975777,17.354399 94.988281,21.027382 97.405060,24.741922 
	C99.857132,23.509905 102.241646,22.311832 104.626152,21.113758 
	C104.903412,21.353451 105.180672,21.593145 105.457939,21.832838 
	C101.219658,28.617821 97.037117,35.439289 92.655899,42.130684 
	C92.223289,42.791409 90.566444,42.890015 89.491676,42.852509 
	C81.722549,42.581402 73.956993,42.208054 65.140724,41.821011 
	C68.679291,39.741070 71.423302,38.128159 74.869644,36.102428 
	C71.673119,30.622112 68.607124,25.365597 65.206024,19.583572 
	C63.324284,17.371418 61.777660,15.684769 60.231037,13.998118 
z"/>
<path fill="#056A33" opacity="1.000000" stroke="none" 
	d="
M60.157829,14.346584 
	C61.777660,15.684769 63.324284,17.371418 64.937042,19.351238 
	C64.164665,20.266041 63.066711,20.716871 62.527706,21.535654 
	C56.988419,29.950230 51.539669,38.424408 45.903244,47.132915 
	C38.493221,43.103069 31.286221,39.183632 23.716589,35.066978 
	C28.710121,27.579920 33.275211,20.307356 38.287220,13.357072 
	C42.234554,7.883196 49.770020,8.136113 56.434536,13.354477 
	C57.405701,14.114904 58.856018,14.263398 60.157829,14.346584 
z"/>
<path fill="#036932" opacity="1.000000" stroke="none" 
	d="
M49.734524,105.131111 
	C43.620014,104.787041 37.969608,104.509384 32.326065,104.129761 
	C26.324539,103.726044 22.065367,98.728676 22.546427,92.636093 
	C22.676292,90.991341 23.006092,89.329895 23.493643,87.753273 
	C24.269850,85.243217 25.255432,82.797913 25.845455,81.171494 
	C37.528103,81.171494 48.603188,81.171494 60.066063,81.171494 
	C59.655750,89.923691 59.292130,97.679825 58.914356,105.737938 
	C55.749760,105.525352 52.975704,105.339012 49.734524,105.131111 
z"/>
<path fill="#01750F" opacity="1.000000" stroke="none" 
	d="
M66.041000,50.101906 
	C68.241905,49.230999 70.437042,47.621296 72.644600,47.604092 
	C93.467781,47.441822 114.293068,47.551102 135.439468,48.030792 
	C128.899002,57.862595 120.126724,62.660526 108.084160,61.126759 
	C102.642227,60.433666 97.023483,61.128784 91.223892,60.996223 
	C85.583122,55.753464 77.863091,54.692436 72.970810,58.035614 
	C70.506477,57.811001 68.266838,57.907219 66.015343,57.563797 
	C66.015999,54.783405 66.028503,52.442657 66.041000,50.101906 
z"/>
<path fill="#DBDBDB" opacity="1.000000" stroke="none" 
	d="
M223.978409,105.020500 
	C223.312912,102.911926 222.734741,100.770332 221.953583,98.705513 
	C221.356827,97.128120 220.503128,95.647919 219.763733,94.124489 
	C218.836273,95.595154 217.206955,97.015717 217.097809,98.544785 
	C216.491745,107.036064 216.621948,107.007172 207.785828,106.120209 
	C204.697433,105.810196 200.385880,106.884697 198.814041,105.241058 
	C197.172989,103.525063 198.185532,99.294395 197.973129,96.167480 
	C197.935852,95.618652 197.579193,95.091507 197.370041,94.554352 
	C196.899231,94.567184 196.428436,94.580025 195.957626,94.592857 
	C195.957626,97.404709 196.168732,100.236656 195.903488,103.023262 
	C195.581375,106.407501 193.130341,107.278221 190.140732,106.966698 
	C187.290100,106.669655 186.477432,105.058571 188.105927,102.319603 
	C189.893845,103.328377 191.166138,105.039764 192.163879,102.135895 
	C192.911926,99.958778 193.180084,97.599396 194.070923,95.494255 
	C194.775238,93.829918 196.101471,92.428764 197.151520,90.910736 
	C198.137711,92.478600 199.629257,93.940056 199.987244,95.640198 
	C200.478409,97.972908 200.110107,100.486595 200.110107,102.883186 
	C203.952194,103.345169 205.306610,101.957672 205.081482,98.403046 
	C204.862228,94.940910 205.214828,91.442566 205.316345,87.960121 
	C206.523483,87.344582 207.730637,86.729042 209.408844,86.400932 
	C209.879913,92.320107 209.879913,97.951843 209.879913,103.583588 
	C210.770630,103.693481 211.661362,103.803375 212.552078,103.913261 
	C213.368484,101.142601 214.050598,98.322540 215.045380,95.617470 
	C215.792114,93.586861 216.524948,90.477173 217.987091,89.981644 
	C222.686035,88.389160 221.507721,85.294106 220.970871,82.126518 
	C221.759323,80.771584 222.547791,79.416656 223.686768,77.961029 
	C224.037277,77.860336 224.162704,77.850143 224.114777,78.296593 
	C224.111862,79.938614 224.156876,81.134193 224.164642,82.744553 
	C224.104797,89.401299 224.082199,95.643265 224.044525,102.276810 
	C224.012451,103.452431 223.995422,104.236465 223.978409,105.020500 
z"/>
<path fill="#0C0C0C" opacity="1.000000" stroke="none" 
	d="
M205.239243,87.568787 
	C205.214828,91.442566 204.862228,94.940910 205.081482,98.403046 
	C205.306610,101.957672 203.952194,103.345169 200.110107,102.883186 
	C200.110107,100.486595 200.478409,97.972908 199.987244,95.640198 
	C199.629257,93.940056 198.137711,92.478600 197.151520,90.910736 
	C196.101471,92.428764 194.775238,93.829918 194.070923,95.494255 
	C193.180084,97.599396 192.911926,99.958778 192.163879,102.135895 
	C191.166138,105.039764 189.893845,103.328377 188.400085,102.091705 
	C188.033752,100.922592 187.984848,99.862022 188.371338,98.194138 
	C188.478348,90.380531 188.149948,83.174255 187.821533,75.967972 
	C187.100525,70.984901 190.867401,71.784164 193.963959,71.101646 
	C193.963959,75.655228 193.963959,79.921364 193.963959,84.288551 
	C202.561005,80.700020 203.901138,81.066544 205.239243,87.568787 
z"/>
<path fill="#057308" opacity="1.000000" stroke="none" 
	d="
M91.484955,61.194092 
	C97.023483,61.128784 102.642227,60.433666 108.084160,61.126759 
	C120.126724,62.660526 128.899002,57.862595 135.893951,48.163902 
	C137.106567,47.751331 138.186401,47.654385 139.522369,48.008209 
	C134.906677,53.137341 129.962723,57.744778 125.229416,62.559299 
	C124.375458,63.427917 124.387520,65.147934 123.532410,66.529846 
	C115.101540,66.724045 107.131622,66.731956 99.180176,67.119118 
	C97.684074,67.191956 96.261612,68.777260 94.651443,69.654099 
	C94.497711,69.643570 94.189972,69.660149 94.106583,69.446899 
	C93.777351,69.027824 93.494179,68.929550 93.160507,68.614288 
	C92.593201,65.924522 92.039078,63.559307 91.484955,61.194092 
z"/>
<path fill="#E1E1E1" opacity="1.000000" stroke="none" 
	d="
M229.438507,84.971970 
	C230.069565,84.979965 230.700638,84.987961 231.794769,85.192886 
	C232.432022,85.681885 232.674255,85.897530 233.008301,86.415550 
	C233.600174,88.224831 234.168243,89.655296 234.800568,91.535767 
	C234.874496,95.332802 234.884171,98.679832 234.670166,102.239914 
	C235.217834,103.268486 235.989182,104.084015 236.760529,104.899536 
	C237.400772,103.782349 238.041000,102.665161 239.012054,101.344437 
	C239.436646,98.034660 239.530441,94.928421 239.978455,91.769783 
	C242.684021,89.332825 244.908234,90.131523 247.180115,92.426369 
	C246.904572,102.151047 246.904572,102.151047 253.557114,103.451630 
	C252.893768,102.777115 252.230438,102.102600 251.567093,101.428093 
	C253.276947,100.797943 254.986786,100.167793 256.696655,99.537659 
	C258.658356,102.825066 258.504700,105.427086 254.496872,107.028061 
	C250.527588,108.613655 247.576401,107.438515 246.122360,103.604134 
	C245.274414,101.368111 245.371078,98.777374 245.013763,96.350494 
	C244.802582,94.916237 244.534851,93.490311 244.292557,92.060631 
	C243.654907,92.088860 243.017258,92.117088 242.379608,92.145309 
	C242.246353,94.576149 242.015076,97.006302 241.998032,99.437958 
	C241.944794,107.035645 239.589920,108.576508 232.724960,105.506287 
	C231.867050,105.122604 230.811417,105.181023 229.448730,104.716324 
	C229.091125,103.277740 229.132187,102.157433 229.259094,100.573807 
	C229.376129,95.064323 229.407318,90.018143 229.438507,84.971970 
z"/>
<path fill="#0A0A0A" opacity="1.000000" stroke="none" 
	d="
M173.039108,101.989616 
	C173.007034,100.927544 172.974960,99.865479 173.377747,98.195511 
	C173.806473,92.743103 173.800323,87.898590 173.888245,82.618301 
	C173.880325,81.071785 173.778320,79.961060 173.651947,78.584846 
	C171.565338,78.784241 169.764725,78.956314 167.748169,79.066193 
	C167.532211,79.003998 167.083755,78.974319 167.083755,78.974319 
	C167.083755,77.839478 167.083755,76.704636 167.083755,75.195610 
	C173.438629,75.195610 179.582825,75.195610 185.870239,75.967415 
	C185.167480,78.391533 184.382034,81.429756 183.465591,81.469788 
	C177.791565,81.717690 179.122314,85.714272 179.011581,88.917648 
	C178.903549,92.043320 179.025757,95.176239 178.992676,98.305397 
	C178.943253,102.980377 177.617844,103.786888 173.039108,101.989616 
z"/>
<path fill="#141414" opacity="1.000000" stroke="none" 
	d="
M234.893845,102.026871 
	C234.884171,98.679832 234.874496,95.332802 234.871368,91.131409 
	C234.246796,88.863625 233.615646,87.450180 232.984512,86.036743 
	C232.674255,85.897530 232.432022,85.681885 232.110870,85.192200 
	C233.184158,81.812538 234.066818,78.443024 235.704865,75.492943 
	C238.081467,71.212715 239.436905,70.833450 246.151642,71.564804 
	C244.647003,74.444756 243.746445,77.173004 242.029510,79.214737 
	C239.574295,82.134346 241.186569,82.735191 243.605865,83.940933 
	C240.278854,85.940468 239.126160,88.436409 239.624222,91.822182 
	C239.530441,94.928421 239.436646,98.034660 238.628937,101.330933 
	C236.907959,101.689590 235.900894,101.858231 234.893845,102.026871 
z"/>
<path fill="#DEDEDE" opacity="1.000000" stroke="none" 
	d="
M152.229630,116.272896 
	C151.802795,121.213158 147.516693,120.667183 144.663757,120.788361 
	C138.410828,121.053955 132.121811,120.309937 125.843636,120.198845 
	C121.798706,120.127274 117.719948,120.204971 113.704597,120.650528 
	C108.094963,121.272987 103.294930,120.595695 99.619370,115.587318 
	C98.577766,114.168015 96.063507,113.183899 94.191780,113.129463 
	C85.395485,112.873634 76.586739,112.931824 67.784546,113.043488 
	C63.742573,113.094757 62.251934,111.453659 63.892860,107.266685 
	C64.645859,106.983597 64.841591,106.976692 65.034485,106.973663 
	C65.031631,106.977547 65.051826,106.960938 65.029343,107.369514 
	C65.150848,111.210075 67.643555,111.031952 70.015083,111.032631 
	C78.305710,111.035019 86.603973,110.840691 94.881790,111.166634 
	C97.057938,111.252319 100.142624,112.360710 101.134178,114.008148 
	C104.372505,119.388496 109.065804,119.095428 114.173111,118.781731 
	C118.403343,118.521896 122.665359,118.833839 126.908646,118.719612 
	C133.599899,118.539474 140.287277,118.214417 147.320358,117.940445 
	C149.072906,117.251419 150.481384,116.572655 151.977280,115.986435 
	C152.064682,116.078979 152.229630,116.272896 152.229630,116.272896 
z"/>
<path fill="#111111" opacity="1.000000" stroke="none" 
	d="
M256.560303,99.218910 
	C254.986786,100.167793 253.276947,100.797943 251.567093,101.428093 
	C252.230438,102.102600 252.893768,102.777115 253.557114,103.451630 
	C246.904572,102.151047 246.904572,102.151047 247.298935,92.013168 
	C246.490845,88.753181 245.653839,86.345490 244.816833,83.937798 
	C245.753754,82.178253 246.690704,80.418701 247.919449,78.111198 
	C248.934158,77.957642 250.691132,77.691757 252.645615,77.395981 
	C252.732956,78.915039 252.816467,80.367180 252.898392,81.792030 
	C257.776917,83.344002 257.776917,83.344017 254.326721,86.492363 
	C250.870544,89.646156 251.802521,95.449097 256.045258,97.519020 
	C256.328644,97.657272 256.304871,98.425140 256.560303,99.218910 
z"/>
<path fill="#DEDEDE" opacity="1.000000" stroke="none" 
	d="
M154.248123,56.964737 
	C154.833847,58.326694 155.919022,59.684967 155.929123,61.051182 
	C156.048264,77.178436 156.123734,93.308708 155.872009,109.432899 
	C155.837082,111.670311 153.978470,113.879257 152.596863,116.187134 
	C152.229630,116.272896 152.064682,116.078979 151.996490,115.671814 
	C151.935242,114.842628 151.942169,114.420609 152.299469,113.950012 
	C152.760376,112.600662 152.870941,111.299881 152.989258,109.624649 
	C153.007324,108.501190 153.017670,107.752197 153.275513,106.821907 
	C153.380508,105.757149 153.238022,104.873688 153.088684,103.595703 
	C152.784531,101.183334 152.487228,99.165482 152.216461,96.668091 
	C152.284576,91.779015 152.326141,87.369476 152.579391,82.735756 
	C152.891129,81.684227 152.991196,80.856895 153.366852,79.726295 
	C153.749420,76.973412 154.285675,74.444542 153.851944,72.094719 
	C153.338791,69.314598 151.988541,66.688995 151.102997,63.658997 
	C152.219284,61.202629 153.233704,59.083683 154.248123,56.964737 
z"/>
<path fill="#0C0C0C" opacity="1.000000" stroke="none" 
	d="
M286.973572,97.056976 
	C287.626190,97.755852 288.278809,98.454735 288.592316,99.675247 
	C284.641388,103.959167 281.823212,101.701645 279.065491,98.985580 
	C279.013214,96.962097 278.960968,94.938622 278.944153,92.137840 
	C278.464569,89.882561 277.949585,88.404579 277.434601,86.926590 
	C278.397797,84.074638 279.360992,81.222694 280.383850,78.194069 
	C281.725952,77.958015 283.147247,77.708038 284.873688,77.404388 
	C285.002533,78.988281 285.119293,80.423264 285.135132,80.618111 
	C286.956665,82.619751 288.103149,83.879593 288.650757,85.522354 
	C284.857300,85.355377 284.499908,87.474518 284.798553,89.703346 
	C285.137787,92.235298 282.241028,95.818474 286.973572,97.056976 
z"/>
<path fill="#1E1E1E" opacity="1.000000" stroke="none" 
	d="
M267.918701,103.017014 
	C267.470123,93.837723 267.470123,84.759186 267.470123,75.283554 
	C268.915863,74.955849 270.621887,74.569145 272.999786,74.030159 
	C272.999786,82.914551 273.164520,91.485741 272.794891,100.033821 
	C272.747772,101.123581 269.911438,102.092735 267.918701,103.017014 
z"/>
<path fill="#DBDBDB" opacity="1.000000" stroke="none" 
	d="
M172.755753,102.213409 
	C177.617844,103.786888 178.943253,102.980377 178.992676,98.305397 
	C179.025757,95.176239 178.903549,92.043320 179.011581,88.917648 
	C179.122314,85.714272 177.791565,81.717690 183.465591,81.469788 
	C184.382034,81.429756 185.167480,78.391533 186.094055,76.354034 
	C186.540680,75.975502 186.906693,75.982162 187.547119,75.978394 
	C188.149948,83.174255 188.478348,90.380531 188.428894,97.799332 
	C187.703140,94.806763 187.599854,91.546097 186.890198,88.423225 
	C186.595535,87.126564 185.005600,86.124245 184.004700,84.988083 
	C183.001877,86.125618 181.217010,87.208969 181.133804,88.410194 
	C180.802261,93.196335 180.906570,98.021713 181.034790,102.827621 
	C181.127487,106.301903 179.046585,107.842064 176.169128,107.804695 
	C173.005554,107.763618 171.359512,105.844849 172.755753,102.213409 
z"/>
<path fill="#0F0F0F" opacity="1.000000" stroke="none" 
	d="
M220.622498,82.087257 
	C221.507721,85.294106 222.686035,88.389160 217.987091,89.981644 
	C216.524948,90.477173 215.792114,93.586861 215.045380,95.617470 
	C214.050598,98.322540 213.368484,101.142601 212.552078,103.913261 
	C211.661362,103.803375 210.770630,103.693481 209.879913,103.583588 
	C209.879913,97.951843 209.879913,92.320107 209.751099,86.295898 
	C208.896042,82.720528 210.546982,81.790253 213.756424,81.995857 
	C214.168121,83.118164 214.640076,84.404739 215.133011,85.748512 
	C216.895538,84.479866 218.584824,83.263931 220.622498,82.087257 
z"/>
<path fill="#034011" opacity="1.000000" stroke="none" 
	d="
M145.004745,47.886856 
	C146.940109,48.630821 148.875488,49.374783 150.821030,50.752151 
	C149.611847,52.700253 148.330856,53.963619 147.185013,55.339535 
	C144.095169,59.049774 141.062943,62.807968 137.571426,66.644836 
	C134.760010,66.655014 132.385010,66.567497 130.023773,66.147293 
	C134.274246,61.149078 138.556030,56.523106 142.714401,51.788742 
	C143.691757,50.676006 144.252396,49.197235 145.004745,47.886856 
z"/>
<path fill="#055716" opacity="1.000000" stroke="none" 
	d="
M144.610229,47.736351 
	C144.252396,49.197235 143.691757,50.676006 142.714401,51.788742 
	C138.556030,56.523106 134.274246,61.149078 129.627090,66.240440 
	C128.419769,66.562927 127.622871,66.459579 126.755325,66.298096 
	C126.500443,66.164352 126.333328,66.195435 125.833145,66.464554 
	C124.988556,66.555542 124.494148,66.515205 123.999756,66.474869 
	C124.387520,65.147934 124.375458,63.427917 125.229416,62.559299 
	C129.962723,57.744778 134.906677,53.137341 139.911697,48.140869 
	C141.435181,47.743793 142.825439,47.664822 144.610229,47.736351 
z"/>
<path fill="#0F0F0F" opacity="1.000000" stroke="none" 
	d="
M229.371689,84.598038 
	C229.407318,90.018143 229.376129,95.064323 228.892059,100.643333 
	C226.979309,101.412521 225.519455,101.648872 224.059586,101.885223 
	C224.082199,95.643265 224.104797,89.401299 224.590302,82.729813 
	C226.465973,82.184814 227.878754,82.069351 229.291534,81.953880 
	C229.295990,82.710625 229.300430,83.467361 229.371689,84.598038 
z"/>
<path fill="#DEDEDE" opacity="1.000000" stroke="none" 
	d="
M63.701347,84.130081 
	C63.147545,83.230301 62.127419,82.337921 62.112988,81.429565 
	C61.986488,73.465515 61.986130,65.497742 62.116196,57.533817 
	C62.130215,56.675587 63.210304,55.834766 64.298233,55.434799 
	C64.736519,63.581326 64.672447,71.278923 64.387100,79.278999 
	C64.011009,81.097679 63.856178,82.613884 63.701347,84.130081 
z"/>
<path fill="#0A3617" opacity="1.000000" stroke="none" 
	d="
M138.007843,66.547134 
	C141.062943,62.807968 144.095169,59.049774 147.185013,55.339535 
	C148.330856,53.963619 149.611847,52.700253 150.974701,51.065453 
	C152.056671,52.269691 152.995178,53.794041 153.525757,55.668411 
	C149.732391,59.520050 146.346939,63.021671 142.622162,66.633820 
	C140.857849,66.678612 139.432846,66.612877 138.007843,66.547134 
z"/>
<path fill="#CACACA" opacity="1.000000" stroke="none" 
	d="
M278.790771,99.222954 
	C281.823212,101.701645 284.641388,103.959167 288.574097,100.023178 
	C288.676849,101.931328 289.196106,104.794937 288.041534,105.883965 
	C286.786774,107.067490 283.664642,107.378830 281.914246,106.678024 
	C279.058472,105.534653 277.069916,103.074997 278.790771,99.222954 
z"/>
<path fill="#072B0D" opacity="1.000000" stroke="none" 
	d="
M142.961487,66.523285 
	C146.346939,63.021671 149.732391,59.520050 153.472412,56.012775 
	C153.907089,56.162373 153.987183,56.317619 154.157684,56.718796 
	C153.233704,59.083683 152.219284,61.202629 150.828522,63.771133 
	C149.877579,64.742126 149.302994,65.263565 148.393555,65.837273 
	C146.359634,66.100792 144.660568,66.312042 142.961487,66.523285 
z"/>
<path fill="#18852D" opacity="1.000000" stroke="none" 
	d="
M64.608368,78.976517 
	C64.672447,71.278923 64.736519,63.581326 64.689995,55.425041 
	C64.852982,53.403240 65.126564,51.840122 65.720573,50.189453 
	C66.028503,52.442657 66.015999,54.783405 66.002930,57.940491 
	C66.016685,59.510384 66.030998,60.263935 66.026619,61.475945 
	C66.014534,65.625374 66.021149,69.316353 66.013763,73.469925 
	C66.007141,77.960838 66.014496,81.989159 66.010712,86.484772 
	C66.019791,93.567741 66.040016,100.183403 65.813278,106.871567 
	C65.394814,106.949677 65.223320,106.955307 65.051826,106.960938 
	C65.051826,106.960938 65.031631,106.977547 65.013565,106.529755 
	C64.883972,103.714401 64.772461,101.346832 64.724533,98.573517 
	C64.707039,97.082916 64.625938,95.998070 64.544838,94.913231 
	C64.594765,93.899361 64.644699,92.885483 64.772003,91.035500 
	C64.769043,86.458427 64.688705,82.717476 64.608368,78.976517 
z"/>
<path fill="#DBDBDB" opacity="1.000000" stroke="none" 
	d="
M166.785492,79.190575 
	C167.083755,78.974319 167.532211,79.003998 167.763535,79.444870 
	C168.310699,83.902077 171.447388,82.755157 173.794174,83.054077 
	C173.800323,87.898590 173.806473,92.743103 173.435028,97.800537 
	C172.712387,96.140648 172.201767,94.280396 172.058533,92.392273 
	C171.800751,88.994049 173.192947,84.992226 167.820877,83.953606 
	C167.109879,83.816139 166.919006,80.988548 166.785492,79.190575 
z"/>
<path fill="#BCBCBC" opacity="1.000000" stroke="none" 
	d="
M286.897430,96.648941 
	C282.241028,95.818474 285.137787,92.235298 284.798553,89.703346 
	C284.499908,87.474518 284.857300,85.355377 288.467560,85.939270 
	C291.337982,87.527618 291.146729,88.876183 289.110809,90.926201 
	C287.846100,92.199684 287.551361,94.436478 286.897430,96.648941 
z"/>
<path fill="#C0C0C0" opacity="1.000000" stroke="none" 
	d="
M244.617920,83.926193 
	C245.653839,86.345490 246.490845,88.753181 247.209045,91.574066 
	C244.908234,90.131523 242.684021,89.332825 239.978455,91.769783 
	C239.126160,88.436409 240.278854,85.940468 243.779007,84.282944 
	C244.027725,83.990074 244.419006,83.914581 244.617920,83.926193 
z"/>
<path fill="#141414" opacity="1.000000" stroke="none" 
	d="
M224.030853,77.922928 
	C223.547104,75.363014 223.745010,72.758636 226.931503,72.540337 
	C227.865814,72.476334 228.973007,74.936050 229.684265,76.741699 
	C227.632629,77.446251 225.897659,77.648201 224.162704,77.850143 
	C224.162704,77.850143 224.037277,77.860336 224.030853,77.922928 
z"/>
<path fill="#B1B1B1" opacity="1.000000" stroke="none" 
	d="
M224.114777,78.296593 
	C225.897659,77.648201 227.632629,77.446251 229.685913,77.122406 
	C229.963837,78.548927 229.923416,80.097351 229.587250,81.799835 
	C227.878754,82.069351 226.465973,82.184814 224.627533,82.315018 
	C224.156876,81.134193 224.111862,79.938614 224.114777,78.296593 
z"/>
<path fill="#B9B9B9" opacity="1.000000" stroke="none" 
	d="
M224.044525,102.276810 
	C225.519455,101.648872 226.979309,101.412521 228.806213,101.106644 
	C229.132187,102.157433 229.091125,103.277740 229.048096,104.715721 
	C227.518585,105.201752 225.991058,105.370102 224.220978,105.279480 
	C223.995422,104.236465 224.012451,103.452431 224.044525,102.276810 
z"/>
<path fill="#DEDEDE" opacity="1.000000" stroke="none" 
	d="
M64.165359,94.928482 
	C64.625938,95.998070 64.707039,97.082916 64.489761,98.867569 
	C64.025558,101.088829 63.859730,102.610275 63.693897,104.131729 
	C61.081966,101.042610 60.828659,97.977104 64.165359,94.928482 
z"/>
<path fill="#A8C4AD" opacity="1.000000" stroke="none" 
	d="
M64.387100,79.278999 
	C64.688705,82.717476 64.769043,86.458427 64.732971,90.655655 
	C64.340111,89.052628 64.063652,86.993317 63.744270,84.532043 
	C63.856178,82.613884 64.011009,81.097679 64.387100,79.278999 
z"/>
<path fill="#CACACA" opacity="1.000000" stroke="none" 
	d="
M277.118896,87.074615 
	C277.949585,88.404579 278.464569,89.882561 278.890320,91.707161 
	C278.135101,90.443398 277.469147,88.833015 277.118896,87.074615 
z"/>
<path fill="#A8C4AD" opacity="1.000000" stroke="none" 
	d="
M63.743774,104.487640 
	C63.859730,102.610275 64.025558,101.088829 64.426163,99.273323 
	C64.772461,101.346832 64.883972,103.714401 65.016411,106.525871 
	C64.841591,106.976692 64.645859,106.983597 64.155319,106.994324 
	C63.838223,106.279953 63.815937,105.561752 63.743774,104.487640 
z"/>
<path fill="#E3F3E6" opacity="1.000000" stroke="none" 
	d="
M91.223892,60.996223 
	C92.039078,63.559307 92.593201,65.924522 92.719925,68.631645 
	C90.245445,68.981651 88.198380,68.989754 86.035553,68.628838 
	C85.091545,64.622772 82.722618,63.576893 79.158981,63.623245 
	C77.240898,63.648190 75.307655,62.507271 73.349548,61.652225 
	C73.317856,61.412064 73.002510,61.044235 73.042015,60.709236 
	C73.119514,59.701641 73.157501,59.029045 73.195496,58.356445 
	C77.863091,54.692436 85.583122,55.753464 91.223892,60.996223 
z"/>
<path fill="#00740A" opacity="1.000000" stroke="none" 
	d="
M72.970810,58.035614 
	C73.157501,59.029045 73.119514,59.701641 72.818771,60.802094 
	C72.273949,61.423702 72.103127,61.689083 71.709549,62.039368 
	C70.930954,62.074692 70.486336,62.096741 69.821686,61.829601 
	C68.416206,61.366104 67.230759,61.191795 66.045311,61.017490 
	C66.030998,60.263935 66.016685,59.510384 66.014786,58.380135 
	C68.266838,57.907219 70.506477,57.811001 72.970810,58.035614 
z"/>
<path fill="#E4EEE4" opacity="1.000000" stroke="none" 
	d="
M142.622162,66.633820 
	C144.660568,66.312042 146.359634,66.100792 148.719177,66.083694 
	C149.556427,68.167427 149.733215,70.057007 149.524078,72.013458 
	C147.597260,72.454559 146.056366,72.828796 144.080902,73.263435 
	C133.873642,73.314949 124.100143,73.379974 114.328621,73.270142 
	C108.224274,73.201523 102.122894,72.869232 95.996574,72.328506 
	C95.583702,71.222717 95.194435,70.443672 94.805168,69.664635 
	C96.261612,68.777260 97.684074,67.191956 99.180176,67.119118 
	C107.131622,66.731956 115.101540,66.724045 123.532402,66.529846 
	C124.494148,66.515205 124.988556,66.555542 125.989647,66.577736 
	C126.496338,66.559586 126.825974,66.356239 126.825974,66.356239 
	C127.622871,66.459579 128.419769,66.562927 129.613342,66.573120 
	C132.385010,66.567497 134.760010,66.655014 137.571426,66.644836 
	C139.432846,66.612877 140.857849,66.678612 142.622162,66.633820 
z"/>
<path fill="#CFD9D0" opacity="1.000000" stroke="none" 
	d="
M94.651443,69.654099 
	C95.194435,70.443672 95.583702,71.222717 95.692825,72.519882 
	C95.693298,74.647659 95.973923,76.257294 95.805893,77.906860 
	C93.262131,77.963470 91.167015,77.980164 88.861412,77.707504 
	C88.174324,75.604424 87.697723,73.790718 87.642151,71.982513 
	C90.238052,71.561119 93.281143,73.419235 94.189972,69.660149 
	C94.189972,69.660149 94.497711,69.643570 94.651443,69.654099 
z"/>
<path fill="#E4EEE4" opacity="1.000000" stroke="none" 
	d="
M94.106583,69.446899 
	C93.281143,73.419235 90.238052,71.561119 87.514427,71.683990 
	C86.694229,70.585915 86.422775,69.791878 86.151321,68.997849 
	C88.198380,68.989754 90.245445,68.981651 92.733093,68.956200 
	C93.494179,68.929550 93.777351,69.027824 94.106583,69.446899 
z"/>
<path fill="#AAABAA" opacity="1.000000" stroke="none" 
	d="
M234.670166,102.239914 
	C235.900894,101.858231 236.907959,101.689590 238.298126,101.534470 
	C238.041000,102.665161 237.400772,103.782349 236.760529,104.899536 
	C235.989182,104.084015 235.217834,103.268486 234.670166,102.239914 
z"/>
<path fill="#AAABAA" opacity="1.000000" stroke="none" 
	d="
M233.008301,86.415550 
	C233.615646,87.450180 234.246796,88.863625 234.807129,90.681412 
	C234.168243,89.655296 233.600174,88.224831 233.008301,86.415550 
z"/>
<path fill="#B1B1B1" opacity="1.000000" stroke="none" 
	d="
M173.888245,82.618301 
	C171.447388,82.755157 168.310699,83.902077 167.979492,79.507057 
	C169.764725,78.956314 171.565338,78.784241 173.651947,78.584846 
	C173.778320,79.961060 173.880325,81.071785 173.888245,82.618301 
z"/>
<path fill="#AAABAA" opacity="1.000000" stroke="none" 
	d="
M65.029343,107.369514 
	C65.223320,106.955307 65.394814,106.949677 66.271568,106.946960 
	C73.322067,106.896805 79.667313,106.843758 86.471298,106.872849 
	C91.613762,106.959320 96.297462,106.963654 101.004761,107.337311 
	C102.687767,110.400398 104.347168,113.094147 106.235168,116.121475 
	C108.975067,116.244911 111.486382,116.034782 114.210442,115.556244 
	C115.959015,114.884506 117.494835,114.481171 119.113129,114.460495 
	C124.269135,115.562492 129.330719,116.386368 134.419952,116.968506 
	C138.588303,117.445312 142.789597,117.634193 146.976288,117.950706 
	C140.287277,118.214417 133.599899,118.539474 126.908646,118.719612 
	C122.665359,118.833839 118.403343,118.521896 114.173111,118.781731 
	C109.065804,119.095428 104.372505,119.388496 101.134178,114.008148 
	C100.142624,112.360710 97.057938,111.252319 94.881790,111.166634 
	C86.603973,110.840691 78.305710,111.035019 70.015083,111.032631 
	C67.643555,111.031952 65.150848,111.210075 65.029343,107.369514 
z"/>
<path fill="#9B9B9B" opacity="1.000000" stroke="none" 
	d="
M147.320358,117.940445 
	C142.789597,117.634193 138.588303,117.445312 134.419952,116.968506 
	C129.330719,116.386368 124.269135,115.562492 119.549789,114.442291 
	C121.698677,114.233673 123.496735,114.616936 125.287491,114.585426 
	C133.513474,114.440651 141.737427,114.179985 150.293213,113.980591 
	C151.065918,113.999710 151.507507,113.999153 151.949097,113.998596 
	C151.942169,114.420609 151.935242,114.842628 151.909088,115.579269 
	C150.481384,116.572655 149.072906,117.251419 147.320358,117.940445 
z"/>
<path fill="#B8C6B7" opacity="1.000000" stroke="none" 
	d="
M149.910004,71.946594 
	C149.733215,70.057007 149.556427,68.167427 149.054016,66.031418 
	C149.302994,65.263565 149.877579,64.742126 150.726654,64.108551 
	C151.988541,66.688995 153.338791,69.314598 153.851944,72.094719 
	C154.285675,74.444542 153.749420,76.973412 153.087875,79.507698 
	C152.220215,78.373466 151.907120,77.154579 151.235229,74.538948 
	C150.686111,78.595139 150.322617,81.280144 149.860229,84.186737 
	C149.585373,84.694633 149.341370,84.900177 148.606232,85.015778 
	C146.498016,84.990013 144.812912,84.973434 142.939545,84.695610 
	C142.151169,84.216011 141.551086,83.997650 141.000854,83.452812 
	C141.696747,81.761559 142.342773,80.396782 143.278656,79.031868 
	C143.761749,79.031990 143.954987,79.032242 144.534927,78.999329 
	C150.311905,79.275185 148.751617,74.644897 149.910004,71.946594 
z"/>
<path fill="#9FB99D" opacity="1.000000" stroke="none" 
	d="
M152.189926,97.147629 
	C152.487228,99.165482 152.784531,101.183334 152.822754,103.768906 
	C152.718430,105.225479 152.873215,106.114342 153.028015,107.003197 
	C153.017670,107.752197 153.007324,108.501190 152.703827,109.712845 
	C151.282669,109.107491 150.154663,108.039482 149.021835,106.601875 
	C149.001480,105.492126 148.985947,104.751968 148.984436,103.610985 
	C148.986679,102.140739 148.974915,101.071335 148.981293,99.668648 
	C148.999222,98.890419 148.998993,98.445457 149.104431,97.785416 
	C149.396240,97.294853 149.647537,97.106125 150.335159,97.010475 
	C151.200851,97.060417 151.695389,97.104019 152.189926,97.147629 
z"/>
<path fill="#86B383" opacity="1.000000" stroke="none" 
	d="
M152.216461,96.668091 
	C151.695389,97.104019 151.200851,97.060417 150.338608,96.617218 
	C149.932022,95.170715 149.893158,94.123802 149.878098,92.750885 
	C149.605804,91.616638 149.309708,90.808372 149.014252,89.584946 
	C149.019714,87.788170 149.024536,86.406563 149.029343,85.024956 
	C149.341370,84.900177 149.585373,84.694633 150.164291,84.072830 
	C151.167404,83.478210 151.767548,83.219078 152.367706,82.959946 
	C152.326141,87.369476 152.284576,91.779015 152.216461,96.668091 
z"/>
<path fill="#B8C6B7" opacity="1.000000" stroke="none" 
	d="
M149.026657,106.971474 
	C150.154663,108.039482 151.282669,109.107491 152.696091,110.087311 
	C152.870941,111.299881 152.760376,112.600662 152.299469,113.950012 
	C151.507507,113.999153 151.065918,113.999710 150.157135,113.644363 
	C149.441589,111.864441 149.193253,110.440445 148.962082,108.675743 
	C148.995041,107.880524 149.010849,107.425995 149.026657,106.971474 
z"/>
<path fill="#9FB99D" opacity="1.000000" stroke="none" 
	d="
M152.579376,82.735756 
	C151.767548,83.219078 151.167404,83.478210 150.263184,83.851242 
	C150.322617,81.280144 150.686111,78.595139 151.235229,74.538948 
	C151.907120,77.154579 152.220215,78.373466 152.812286,79.810959 
	C152.991196,80.856895 152.891129,81.684227 152.579376,82.735756 
z"/>
<path fill="#B8C6B7" opacity="1.000000" stroke="none" 
	d="
M153.275513,106.821907 
	C152.873215,106.114342 152.718430,105.225479 152.829590,104.163422 
	C153.238022,104.873688 153.380508,105.757149 153.275513,106.821907 
z"/>
<path fill="#057308" opacity="1.000000" stroke="none" 
	d="
M126.755325,66.298096 
	C126.825974,66.356239 126.496338,66.559586 126.339844,66.446396 
	C126.333328,66.195435 126.500443,66.164352 126.755325,66.298096 
z"/>
<path fill="#005E17" opacity="1.000000" stroke="none" 
	d="
M86.012543,106.790710 
	C79.667313,106.843758 73.322067,106.896805 66.518539,106.874466 
	C66.040016,100.183403 66.019791,93.567741 66.422768,86.423996 
	C73.582451,85.260666 80.318939,84.625412 87.361328,84.166931 
	C88.901314,85.635796 90.135399,86.927895 91.307419,88.291168 
	C91.245346,88.362343 91.067535,88.427429 91.041557,88.874222 
	C91.009842,90.215538 91.004105,91.110046 91.001526,92.378906 
	C94.267937,97.310669 91.884735,100.341331 88.347717,103.248718 
	C87.304024,104.106621 86.776573,105.592575 86.012543,106.790710 
z"/>
<path fill="#00680E" opacity="1.000000" stroke="none" 
	d="
M87.055420,83.990158 
	C80.318939,84.625412 73.582451,85.260666 66.433914,85.956696 
	C66.014496,81.989159 66.007141,77.960838 66.475449,73.467171 
	C71.996857,72.659904 77.042587,72.318001 82.354683,72.193024 
	C84.099167,76.270020 85.577293,80.130089 87.055420,83.990158 
z"/>
<path fill="#006D05" opacity="1.000000" stroke="none" 
	d="
M82.088326,71.976089 
	C77.042587,72.318001 71.996857,72.659904 66.489441,73.004570 
	C66.021149,69.316353 66.014534,65.625374 66.026619,61.475945 
	C67.230759,61.191795 68.416206,61.366104 69.803711,62.246651 
	C69.338913,66.907776 71.781082,67.196014 74.713089,66.989868 
	C78.452194,66.726974 81.606888,67.391342 82.088326,71.976089 
z"/>
<path fill="#05270C" opacity="1.000000" stroke="none" 
	d="
M82.354683,72.193024 
	C81.606888,67.391342 78.452194,66.726974 74.713089,66.989868 
	C71.781082,67.196014 69.338913,66.907776 70.023743,62.535843 
	C70.486336,62.096741 70.930954,62.074692 72.044601,62.014320 
	C72.936172,61.948135 73.158707,61.920265 73.381248,61.892387 
	C75.307655,62.507271 77.240898,63.648190 79.158981,63.623245 
	C82.722618,63.576893 85.091545,64.622772 86.035553,68.628838 
	C86.422775,69.791878 86.694229,70.585915 87.093414,71.678482 
	C87.697723,73.790718 88.174324,75.604424 88.821884,78.070801 
	C89.951378,80.141655 90.909897,81.559860 91.478867,83.127731 
	C91.182701,84.924934 91.276100,86.572456 91.369492,88.219986 
	C90.135399,86.927895 88.901314,85.635796 87.361328,84.166931 
	C85.577293,80.130089 84.099167,76.270020 82.354683,72.193024 
z"/>
<path fill="#054113" opacity="1.000000" stroke="none" 
	d="
M73.349548,61.652229 
	C73.158707,61.920265 72.936172,61.948135 72.378586,62.001049 
	C72.103127,61.689083 72.273949,61.423702 72.779266,61.137093 
	C73.002510,61.044235 73.317856,61.412064 73.349548,61.652229 
z"/>
<path fill="#032108" opacity="1.000000" stroke="none" 
	d="
M144.148209,79.032486 
	C143.954987,79.032242 143.761749,79.031990 143.130859,78.688622 
	C140.165665,77.452896 137.638123,76.560280 134.768646,75.461937 
	C131.242813,75.370934 128.058929,75.485664 124.532104,75.616882 
	C123.502907,75.617485 122.816658,75.601608 121.903763,75.395386 
	C120.741280,75.312889 119.805443,75.420715 118.433258,75.538094 
	C112.416748,75.508759 106.836578,75.469879 101.007690,75.306374 
	C100.464882,75.375542 100.170792,75.569328 99.585403,75.878914 
	C98.280914,76.618790 97.267731,77.242867 96.254547,77.866936 
	C95.973923,76.257294 95.693298,74.647659 95.716431,72.846634 
	C102.122894,72.869232 108.224274,73.201523 114.328621,73.270142 
	C124.100143,73.379974 133.873642,73.314949 144.217346,73.619278 
	C144.575012,75.620636 144.361603,77.326561 144.148209,79.032486 
z"/>
<path fill="#D2DCD3" opacity="1.000000" stroke="none" 
	d="
M144.534927,78.999329 
	C144.361603,77.326561 144.575012,75.620636 144.651947,73.558868 
	C146.056366,72.828796 147.597260,72.454559 149.524078,72.013458 
	C148.751617,74.644897 150.311905,79.275185 144.534927,78.999329 
z"/>
<path fill="#C9D3C9" opacity="1.000000" stroke="none" 
	d="
M135.110596,75.667671 
	C137.638123,76.560280 140.165665,77.452896 142.841003,78.688759 
	C142.342773,80.396782 141.696747,81.761559 140.744476,83.478271 
	C140.098648,83.846252 139.759033,83.862282 139.165741,83.487953 
	C130.601288,83.028221 122.290512,82.958855 113.546227,82.761604 
	C108.015015,82.084419 102.920975,81.494141 97.814941,81.038094 
	C97.182510,80.981613 96.486313,81.639076 95.480606,82.020920 
	C94.050507,82.376770 92.959465,82.677422 91.868416,82.978073 
	C90.909897,81.559860 89.951378,80.141655 89.032379,78.360161 
	C91.167015,77.980164 93.262131,77.963470 95.805893,77.906860 
	C97.267731,77.242867 98.280914,76.618790 99.835327,75.941887 
	C100.669846,75.736374 100.963127,75.583687 101.256409,75.431000 
	C106.836578,75.469879 112.416748,75.508759 118.821609,75.708214 
	C120.474335,75.774437 121.302376,75.680077 122.130409,75.585724 
	C122.816658,75.601608 123.502907,75.617485 124.977730,75.766380 
	C128.881073,75.822151 131.995834,75.744911 135.110596,75.667671 
z"/>
<path fill="#CFD9D0" opacity="1.000000" stroke="none" 
	d="
M148.944916,109.016441 
	C149.193253,110.440445 149.441589,111.864441 149.826019,113.624680 
	C141.737427,114.179985 133.513474,114.440651 125.287491,114.585426 
	C123.496735,114.616936 121.698677,114.233673 119.467316,114.059631 
	C117.494835,114.481171 115.959015,114.884506 113.768082,115.605240 
	C110.744171,115.877724 108.375374,115.832817 106.006577,115.787903 
	C104.347168,113.094147 102.687767,110.400398 101.025223,107.340988 
	C101.022079,106.975327 101.035217,107.014839 101.454872,107.015701 
	C104.810448,106.401176 109.223732,104.298660 110.393700,105.460938 
	C113.400597,108.448036 116.285492,106.543762 119.470276,106.947227 
	C120.686562,106.607544 121.582336,106.249245 122.935104,105.921249 
	C126.926872,105.981812 130.461639,106.012077 134.091980,106.431313 
	C135.847916,107.213722 137.489792,107.743881 139.172577,107.971382 
	C142.417801,108.410095 145.686157,108.677826 148.944916,109.016441 
z"/>
<path fill="#054113" opacity="1.000000" stroke="none" 
	d="
M86.471298,106.872849 
	C86.776573,105.592575 87.304024,104.106621 88.347717,103.248718 
	C91.884735,100.341331 94.267937,97.310669 91.388336,92.341293 
	C92.029602,91.901932 92.287216,91.874527 92.714417,92.056557 
	C93.279930,92.836945 93.675858,93.407898 94.164078,94.310143 
	C97.171204,96.089668 100.086044,97.537903 103.232468,99.093330 
	C103.877251,99.433449 104.290451,99.666367 104.420441,100.082504 
	C103.103233,102.515427 102.069221,104.765129 101.035217,107.014839 
	C101.035217,107.014839 101.022079,106.975327 101.001625,106.971657 
	C96.297462,106.963654 91.613762,106.959320 86.471298,106.872849 
z"/>
<path fill="#9B9B9B" opacity="1.000000" stroke="none" 
	d="
M106.235168,116.121475 
	C108.375374,115.832817 110.744171,115.877724 113.555328,115.873642 
	C111.486382,116.034782 108.975067,116.244911 106.235168,116.121475 
z"/>
<path fill="#A4BAA2" opacity="1.000000" stroke="none" 
	d="
M148.606232,85.015778 
	C149.024536,86.406563 149.019714,87.788170 148.613632,89.585022 
	C145.792862,89.660133 143.373337,89.320000 140.639572,89.029434 
	C139.910446,89.721436 139.495575,90.363884 139.062515,91.017067 
	C139.044327,91.027809 139.031998,90.987404 138.560638,90.974106 
	C125.746826,91.025276 113.404381,91.089745 101.043915,90.866776 
	C101.017059,90.387550 101.008224,90.195763 101.000755,89.576385 
	C100.961845,88.007965 100.921577,86.867142 100.961731,85.507202 
	C101.259857,85.024048 101.538559,84.912682 102.075691,84.925766 
	C102.537498,84.818878 102.752388,84.669197 103.366852,84.328430 
	C107.215866,84.118462 110.615822,84.028519 114.479630,84.001373 
	C117.089653,84.079033 119.239120,84.022934 121.381355,84.122368 
	C127.256607,84.395088 133.128830,84.733154 139.137192,85.312531 
	C140.557373,85.372093 141.842590,85.164467 143.127823,84.956848 
	C144.812912,84.973434 146.498016,84.990013 148.606232,85.015778 
z"/>
<path fill="#789178" opacity="1.000000" stroke="none" 
	d="
M142.939545,84.695610 
	C141.842590,85.164467 140.557373,85.372093 139.213684,85.010826 
	C139.243301,84.254059 139.331375,84.066185 139.419434,83.878311 
	C139.759033,83.862282 140.098648,83.846252 140.694611,83.804749 
	C141.551086,83.997650 142.151169,84.216011 142.939545,84.695610 
z"/>
<path fill="#B5C5B5" opacity="1.000000" stroke="none" 
	d="
M103.000877,98.986130 
	C100.086044,97.537903 97.171204,96.089668 94.487411,94.137291 
	C96.856155,93.067314 98.993851,92.501488 101.589745,91.980309 
	C113.238785,92.081108 124.429733,92.172371 135.620331,92.139931 
	C136.758667,92.136635 137.894821,91.389412 139.031998,90.987411 
	C139.031998,90.987404 139.044327,91.027809 139.306915,91.131882 
	C140.045334,91.486862 140.521133,91.737778 141.413879,91.991501 
	C144.505310,92.355164 147.179794,92.716019 149.854294,93.076881 
	C149.893158,94.123802 149.932022,95.170715 149.967453,96.610886 
	C149.647537,97.106125 149.396240,97.294853 148.689209,97.732040 
	C140.908752,97.634735 133.649872,97.341743 126.388023,97.198608 
	C125.937973,97.189743 125.464691,98.359520 124.559509,99.073669 
	C121.410187,99.105240 118.703568,99.044067 115.906143,98.590088 
	C111.436417,96.715004 107.060616,95.283485 103.000877,98.986130 
z"/>
<path fill="#BECABF" opacity="1.000000" stroke="none" 
	d="
M133.996414,106.042343 
	C130.461639,106.012077 126.926872,105.981812 122.939926,105.557999 
	C123.633080,103.441467 124.778412,101.718491 126.397141,99.997398 
	C134.234741,100.000160 141.598938,100.001045 148.963135,100.001923 
	C148.974915,101.071335 148.986679,102.140739 148.521561,103.606178 
	C144.611374,104.001068 141.163223,103.816528 137.752335,104.092468 
	C136.456253,104.197327 135.245865,105.361160 133.996414,106.042343 
z"/>
<path fill="#BDC9BE" opacity="1.000000" stroke="none" 
	d="
M148.981293,99.668648 
	C141.598938,100.001045 134.234741,100.000160 126.330215,99.765930 
	C125.557449,99.305679 125.294891,99.121788 125.002213,98.980927 
	C125.464691,98.359520 125.937973,97.189743 126.388023,97.198608 
	C133.649872,97.341743 140.908752,97.634735 148.583542,97.947128 
	C148.998993,98.445457 148.999222,98.890419 148.981293,99.668648 
z"/>
<path fill="#C9D3C9" opacity="1.000000" stroke="none" 
	d="
M134.091980,106.431313 
	C135.245865,105.361160 136.456253,104.197327 137.752335,104.092468 
	C141.163223,103.816528 144.611374,104.001068 148.507538,104.007011 
	C148.985947,104.751968 149.001480,105.492126 149.021835,106.601875 
	C149.010849,107.425995 148.995041,107.880524 148.962082,108.675743 
	C145.686157,108.677826 142.417801,108.410095 139.172577,107.971382 
	C137.489792,107.743881 135.847916,107.213722 134.091980,106.431313 
z"/>
<path fill="#A4B8A3" opacity="1.000000" stroke="none" 
	d="
M149.878098,92.750885 
	C147.179794,92.716019 144.505310,92.355164 141.414459,91.615723 
	C140.983353,90.484726 140.968597,89.732292 140.953827,88.979866 
	C143.373337,89.320000 145.792862,89.660133 148.613007,90.000191 
	C149.309708,90.808372 149.605804,91.616638 149.878098,92.750885 
z"/>
<path fill="#A4BAA2" opacity="1.000000" stroke="none" 
	d="
M91.478867,83.127739 
	C92.959465,82.677422 94.050507,82.376770 95.618500,82.329407 
	C97.383858,84.034203 98.672279,85.485703 99.949562,87.262375 
	C99.625511,88.391800 99.312599,89.196053 98.577240,90.000290 
	C96.195152,89.999641 94.235504,89.999001 92.125977,89.685074 
	C91.673241,89.057007 91.370384,88.742218 91.067535,88.427429 
	C91.067535,88.427429 91.245346,88.362343 91.307419,88.291168 
	C91.276100,86.572456 91.182701,84.924934 91.478867,83.127739 
z"/>
<path fill="#05270C" opacity="1.000000" stroke="none" 
	d="
M91.041557,88.874222 
	C91.370384,88.742218 91.673241,89.057007 92.100754,89.999367 
	C92.331879,91.033661 92.438354,91.440392 92.544830,91.847115 
	C92.287216,91.874527 92.029602,91.901932 91.385178,91.966949 
	C91.004105,91.110046 91.009842,90.215538 91.041557,88.874222 
z"/>
<path fill="#527659" opacity="1.000000" stroke="none" 
	d="
M134.768646,75.461937 
	C131.995834,75.744911 128.881073,75.822151 125.320679,75.749893 
	C128.058929,75.485664 131.242813,75.370934 134.768646,75.461937 
z"/>
<path fill="#527659" opacity="1.000000" stroke="none" 
	d="
M121.903763,75.395386 
	C121.302376,75.680077 120.474335,75.774437 119.257950,75.698669 
	C119.805443,75.420715 120.741280,75.312889 121.903763,75.395386 
z"/>
<path fill="#527659" opacity="1.000000" stroke="none" 
	d="
M101.007690,75.306381 
	C100.963127,75.583687 100.669846,75.736374 100.126633,75.826088 
	C100.170792,75.569328 100.464882,75.375542 101.007690,75.306381 
z"/>
<path fill="#0C3E18" opacity="1.000000" stroke="none" 
	d="
M99.960701,86.937202 
	C98.672279,85.485703 97.383858,84.034203 95.957550,82.274208 
	C96.486313,81.639076 97.182510,80.981613 97.814941,81.038094 
	C102.920975,81.494141 108.015015,82.084419 113.556915,83.023834 
	C114.005997,83.588814 114.010880,83.763695 114.015770,83.938576 
	C110.615822,84.028519 107.215866,84.118462 103.156532,84.303246 
	C102.215416,84.499390 102.009117,84.684700 101.878265,84.954018 
	C101.538559,84.912682 101.259857,85.024048 100.740936,85.650055 
	C100.280037,86.320404 100.120369,86.628807 99.960701,86.937202 
z"/>
<path fill="#001B01" opacity="1.000000" stroke="none" 
	d="
M114.479630,84.001373 
	C114.010880,83.763695 114.005997,83.588814 113.990417,83.151703 
	C122.290512,82.958855 130.601288,83.028221 139.165741,83.487961 
	C139.331375,84.066185 139.243301,84.254059 139.078735,84.743645 
	C133.128830,84.733154 127.256607,84.395088 121.381355,84.122368 
	C119.239120,84.022934 117.089653,84.079033 114.479630,84.001373 
z"/>
<path fill="#C1CCC2" opacity="1.000000" stroke="none" 
	d="
M101.454865,107.015701 
	C102.069221,104.765129 103.103233,102.515427 104.899521,100.112137 
	C108.846390,99.946068 112.030960,99.933586 115.505402,100.091064 
	C116.913437,102.483551 118.031601,104.706078 119.149765,106.928612 
	C116.285492,106.543762 113.400597,108.448036 110.393700,105.460938 
	C109.223732,104.298660 104.810448,106.401176 101.454865,107.015701 
z"/>
<path fill="#18371A" opacity="1.000000" stroke="none" 
	d="
M119.470276,106.947227 
	C118.031601,104.706078 116.913437,102.483551 115.553040,99.881508 
	C115.531105,99.317833 115.759819,99.144798 115.996948,98.982895 
	C118.703568,99.044067 121.410187,99.105240 124.559509,99.073669 
	C125.294891,99.121788 125.557449,99.305679 125.856812,99.764046 
	C124.778412,101.718491 123.633080,103.441467 122.482925,105.527695 
	C121.582336,106.249245 120.686562,106.607544 119.470276,106.947227 
z"/>
<path fill="#BDC9BE" opacity="1.000000" stroke="none" 
	d="
M115.906143,98.590088 
	C115.759819,99.144798 115.531105,99.317833 115.263176,99.711548 
	C112.030960,99.933586 108.846390,99.946068 105.182732,99.928925 
	C104.290451,99.666367 103.877251,99.433449 103.232468,99.093330 
	C107.060616,95.283485 111.436417,96.715004 115.906143,98.590088 
z"/>
<path fill="#A4B8A3" opacity="1.000000" stroke="none" 
	d="
M92.714417,92.056557 
	C92.438354,91.440392 92.331879,91.033661 92.250633,90.312653 
	C94.235504,89.999001 96.195152,89.999641 98.910538,90.001343 
	C100.110649,90.002937 100.555016,90.003448 100.999390,90.003967 
	C101.008224,90.195763 101.017059,90.387550 101.052979,91.062881 
	C101.080048,91.546410 101.131554,91.935669 101.131554,91.935669 
	C98.993851,92.501488 96.856155,93.067314 94.395119,93.805992 
	C93.675858,93.407898 93.279930,92.836945 92.714417,92.056557 
z"/>
<path fill="#1C4820" opacity="1.000000" stroke="none" 
	d="
M101.589745,91.980316 
	C101.131554,91.935669 101.080048,91.546410 101.070984,91.350311 
	C113.404381,91.089745 125.746826,91.025276 138.560638,90.974106 
	C137.894821,91.389412 136.758667,92.136635 135.620331,92.139931 
	C124.429733,92.172371 113.238785,92.081108 101.589745,91.980316 
z"/>
<path fill="#A0B89E" opacity="1.000000" stroke="none" 
	d="
M140.639587,89.029434 
	C140.968597,89.732292 140.983353,90.484726 140.997528,91.612923 
	C140.521133,91.737778 140.045334,91.486862 139.325104,91.121140 
	C139.495575,90.363884 139.910446,89.721436 140.639587,89.029434 
z"/>
<path fill="#A0B89E" opacity="1.000000" stroke="none" 
	d="
M101.000755,89.576385 
	C100.555016,90.003448 100.110649,90.002937 99.332977,90.001358 
	C99.312599,89.196053 99.625511,88.391800 99.949562,87.262375 
	C100.120369,86.628807 100.280037,86.320404 100.660507,85.869156 
	C100.921577,86.867142 100.961845,88.007965 101.000755,89.576385 
z"/>
<path fill="#A0B89E" opacity="1.000000" stroke="none" 
	d="
M102.075691,84.925766 
	C102.009117,84.684700 102.215416,84.499390 102.707458,84.423279 
	C102.752388,84.669197 102.537498,84.818878 102.075691,84.925766 
z"/>
</svg>